<?xml version="1.0" encoding="utf-8"?>
<!-- Generator: Adobe Illustrator 27.7.0, SVG Export Plug-In . SVG Version: 6.00 Build 0)  -->
<svg version="1.1" id="Layer_1" xmlns="http://www.w3.org/2000/svg" xmlns:xlink="http://www.w3.org/1999/xlink" x="0px" y="0px"
	 viewBox="0 0 36.9 36.9" style="enable-background:new 0 0 36.9 36.9;" xml:space="preserve">
<style type="text/css">
	.st0{fill:#CECA32;}
	.st1{fill:#FFFFFF;}
</style>
<rect x="0" y="0" class="st0" width="36.9" height="36.9"/>
<g>
	<g>
		<g>
			<path class="st1" d="M16.1,15.3c1.8,2.1,3.4,4,5.2,6.1c0.6-2.4,1-4.4,1.6-6.8C20.5,14.9,18.4,15.1,16.1,15.3z M15.6,15.7
				c-0.6,2.4-1.2,4.5-1.8,6.8c2.4-0.3,4.5-0.5,6.8-0.8C18.9,19.6,17.4,17.8,15.6,15.7z M22.8,14.1c-1.2-1.8-2.3-3.3-3.4-5.1
				c-1.2,2-2.2,3.7-3.4,5.8C18.4,14.5,20.4,14.3,22.8,14.1z M8.8,18c1.6,1.5,2.9,2.8,4.5,4.2c0.6-2.3,1.1-4.3,1.8-6.7
				C12.9,16.4,11,17.2,8.8,18z M17.5,28.1c1.1-2,2.1-3.7,3.3-5.7c-2.4,0.2-4.4,0.4-6.7,0.7C15.2,24.8,16.3,26.3,17.5,28.1z
				 M21.8,21.4c2.1-0.8,4-1.6,6.1-2.4c-1.6-1.5-2.9-2.7-4.4-4.1C23,17.2,22.5,19.1,21.8,21.4z M15.4,14.6c1.2-2,2.2-3.7,3.4-5.7
				c-2.5,0.5-4.6,1-7,1.5C13,11.8,14.1,13.1,15.4,14.6z M21.4,22.4c-1.1,1.9-2.1,3.7-3.3,5.7c2.5-0.5,4.6-1,7-1.5
				C23.8,25.2,22.7,24,21.4,22.4z M11.3,10.7c-0.9,2.3-1.6,4.4-2.5,6.8c2.3-0.9,4.1-1.7,6.2-2.5C13.7,13.5,12.6,12.2,11.3,10.7z
				 M25.5,26.4c0.8-2.3,1.6-4.3,2.3-6.3c-0.1-0.1-0.2-0.2-0.2-0.3c-1.8,0.8-3.6,1.5-5.6,2.3C23.2,23.5,24.3,24.8,25.5,26.4z
				 M13.4,23.2c-1.1,0.9-2,1.7-3.1,2.7c2.2,0.8,4.2,1.4,6.1,2.1c0-0.1,0.1-0.2,0.1-0.2C15.5,26.3,14.6,24.8,13.4,23.2z M13.1,22.8
				c-1.4-1.4-2.7-2.5-4-3.7c-0.1,0.1-0.2,0.1-0.2,0.2c0.4,2,0.7,4,1.1,6.3C11.1,24.5,12,23.7,13.1,22.8z M26.5,11.2
				c-2.1-0.7-4.1-1.4-6-2c0.7,1.5,1.5,2.7,2.5,3.9c0.2,0.2,0.9,0.4,1.1,0.2C24.9,12.7,25.6,12,26.5,11.2z M26.9,11.6
				c-1.1,0.9-1.9,1.6-2.7,2.3c-0.1,0.1-0.1,0.6,0,0.8c1.1,1.1,2.3,2.1,3.8,3.3C27.6,15.7,27.3,13.8,26.9,11.6z M24.2,27.5
				c-2,0.4-3.7,0.8-5.6,1.2C21.4,30.5,21,30.6,24.2,27.5z M18.3,8.4c-2.4-1.8-3.2-1.6-5.6,1.2C14.6,9.2,16.3,8.8,18.3,8.4z
				 M10.5,11.3c-3.3,2.6-3.6,3.3-2,5.4C9.1,15,9.8,13.3,10.5,11.3z M26.4,25.7c3.5-3.2,3.5-2.4,2-5.2c-0.5,1.3-1,2.5-1.5,3.7
				C26.8,24.6,26.7,25,26.4,25.7z M20.3,8.5c1,0.3,1.8,0.6,2.6,0.9c0.8,0.3,1.6,0.5,2.4,0.8c-0.5-0.8-1.1-1.3-1.7-1.8
				C22.1,7.1,22.1,7.1,20.3,8.5z M11.6,26.9c0,0.1-0.1,0.1-0.1,0.2c0.6,0.6,1.3,1.1,1.9,1.7c1.4,1.2,1.6,1.2,3.2-0.2
				C14.8,28,13.2,27.4,11.6,26.9z M8.8,24c0.1,0,0.2-0.1,0.3-0.1c-0.3-1.6-0.6-3.2-0.9-4.8c-0.6,0.7-1.8,1.1-1.1,2.3
				C7.6,22.2,8.2,23.1,8.8,24z M28.6,17.9c0.2,0.1,0.3,0.1,0.5,0.2c0.3-0.7,0.9-1.5,0.7-2c-0.4-1.1-1.2-2-1.9-3
				c-0.1,0-0.2,0.1-0.3,0.1C28,14.7,28.3,16.3,28.6,17.9z M7.1,15.8c-0.1,1.2-0.2,2.3-0.3,3.5C8.1,18,8.2,17.6,7.1,15.8z M29.8,21.1
				c0.1-1.1,0.2-2.1,0.4-3.3C28.8,18.8,28.8,19.3,29.8,21.1z M19.2,30c-1.1-1-2.2-1.3-3.2,0C17.2,30,18.2,30,19.2,30z M20.9,7.1
				C19.7,7,18.6,7,17.2,6.9C19.4,8.3,19.5,8.3,20.9,7.1z"/>
			<path class="st1" d="M16.1,15.3c2.4-0.2,4.5-0.4,6.8-0.7c-0.5,2.3-1,4.3-1.6,6.8C19.5,19.3,17.9,17.4,16.1,15.3z"/>
			<path class="st1" d="M15.6,15.7c1.7,2,3.3,3.9,5.1,5.9c-2.4,0.3-4.4,0.5-6.8,0.8C14.5,20.2,15,18.2,15.6,15.7z"/>
			<path class="st1" d="M22.8,14.1c-2.4,0.2-4.4,0.5-6.8,0.7c1.2-2,2.2-3.8,3.4-5.8C20.6,10.7,21.6,12.2,22.8,14.1z"/>
			<path class="st1" d="M8.8,18c2.2-0.9,4-1.6,6.2-2.5c-0.6,2.4-1.2,4.4-1.8,6.7C11.8,20.8,10.4,19.5,8.8,18z"/>
			<path class="st1" d="M17.5,28.1c-1.2-1.8-2.3-3.3-3.5-5.1c2.3-0.2,4.3-0.4,6.7-0.7C19.6,24.4,18.6,26.1,17.5,28.1z"/>
			<path class="st1" d="M21.8,21.4c0.6-2.3,1.1-4.3,1.7-6.5c1.5,1.4,2.8,2.6,4.4,4.1C25.8,19.9,24,20.6,21.8,21.4z"/>
			<path class="st1" d="M15.4,14.6c-1.3-1.5-2.4-2.8-3.7-4.3c2.4-0.5,4.6-1,7-1.5C17.6,10.9,16.6,12.6,15.4,14.6z"/>
			<path class="st1" d="M21.4,22.4c1.3,1.5,2.4,2.8,3.7,4.3c-2.4,0.5-4.5,1-7,1.5C19.3,26.1,20.3,24.4,21.4,22.4z"/>
			<path class="st1" d="M11.3,10.7c1.3,1.5,2.4,2.8,3.7,4.3c-2.1,0.8-3.9,1.6-6.2,2.5C9.7,15.1,10.5,13,11.3,10.7z"/>
			<path class="st1" d="M25.5,26.4c-1.3-1.5-2.3-2.8-3.6-4.3c2-0.8,3.8-1.6,5.6-2.3c0.1,0.1,0.2,0.2,0.2,0.3
				C27.1,22.1,26.4,24.1,25.5,26.4z"/>
			<path class="st1" d="M13.4,23.2c1.1,1.6,2.1,3.1,3.1,4.5c0,0.1-0.1,0.2-0.1,0.2c-1.9-0.6-3.8-1.3-6.1-2.1
				C11.4,24.9,12.3,24.1,13.4,23.2z"/>
			<path class="st1" d="M13.1,22.8c-1.1,0.9-2,1.7-3.1,2.7c-0.4-2.3-0.8-4.3-1.1-6.3C8.9,19.1,9,19.1,9.1,19
				C10.4,20.2,11.6,21.4,13.1,22.8z"/>
			<path class="st1" d="M26.5,11.2c-0.9,0.8-1.6,1.5-2.4,2.1c-0.2,0.2-0.9,0-1.1-0.2c-0.9-1.2-1.8-2.4-2.5-3.9
				C22.4,9.8,24.3,10.4,26.5,11.2z"/>
			<path class="st1" d="M26.9,11.6c0.4,2.2,0.7,4.1,1.1,6.4c-1.5-1.3-2.6-2.3-3.8-3.3c-0.1-0.1-0.2-0.6,0-0.8
				C25,13.2,25.8,12.5,26.9,11.6z"/>
			<path class="st1" d="M24.2,27.5c-3.3,3.1-2.8,3-5.6,1.2C20.5,28.3,22.3,27.9,24.2,27.5z"/>
			<path class="st1" d="M18.3,8.4c-1.9,0.4-3.7,0.8-5.6,1.2C15.1,6.8,15.8,6.6,18.3,8.4z"/>
			<path class="st1" d="M10.5,11.3c-0.7,2-1.4,3.7-2,5.4C6.9,14.6,7.2,13.9,10.5,11.3z"/>
			<path class="st1" d="M26.4,25.7c0.2-0.7,0.3-1.1,0.5-1.5c0.5-1.2,1-2.4,1.5-3.7C29.9,23.3,29.9,22.5,26.4,25.7z"/>
			<path class="st1" d="M20.3,8.5c1.8-1.4,1.8-1.4,3.2-0.1c0.6,0.5,1.2,1.1,1.7,1.8c-0.8-0.3-1.6-0.5-2.4-0.8
				C22.1,9.1,21.3,8.8,20.3,8.5z"/>
			<path class="st1" d="M11.6,26.9c1.6,0.6,3.3,1.1,5,1.7c-1.6,1.4-1.8,1.4-3.2,0.2c-0.6-0.6-1.3-1.1-1.9-1.7
				C11.5,27,11.5,26.9,11.6,26.9z"/>
			<path class="st1" d="M8.8,24c-0.6-0.9-1.2-1.8-1.7-2.7c-0.7-1.2,0.5-1.6,1.1-2.3c0.3,1.6,0.6,3.2,0.9,4.8C9,23.9,8.9,23.9,8.8,24
				z"/>
			<path class="st1" d="M28.6,17.9c-0.3-1.6-0.6-3.2-0.9-4.7c0.1,0,0.2-0.1,0.3-0.1c0.6,1,1.5,1.9,1.9,3c0.2,0.5-0.5,1.3-0.7,2
				C29,18,28.8,18,28.6,17.9z"/>
			<path class="st1" d="M7.1,15.8c1.1,1.8,1,2.1-0.3,3.5C6.9,18.1,7,17.1,7.1,15.8z"/>
			<path class="st1" d="M29.8,21.1c-1-1.8-0.9-2.3,0.4-3.3C30,18.9,29.9,20,29.8,21.1z"/>
			<path class="st1" d="M19.2,30c-1,0-2,0-3.2,0C17.1,28.7,18.1,28.9,19.2,30z"/>
			<path class="st1" d="M20.9,7.1c-1.4,1.2-1.5,1.2-3.6-0.2C18.6,7,19.7,7,20.9,7.1z"/>
		</g>
	</g>
</g>
</svg>
