<?xml version="1.0" encoding="utf-8"?>
<!-- Generator: Adobe Illustrator 27.7.0, SVG Export Plug-In . SVG Version: 6.00 Build 0)  -->
<svg version="1.1" id="Layer_1" xmlns="http://www.w3.org/2000/svg" xmlns:xlink="http://www.w3.org/1999/xlink" x="0px" y="0px"
	 viewBox="0 0 177.8 44.1" style="enable-background:new 0 0 177.8 44.1;" xml:space="preserve">
<style type="text/css">
	.st0{fill:#FFFFFF;}
	.st1{fill:#FF6728;}
	.st2{fill:#CECA32;}
</style>
<g>
	<g>
		<g>
			<path class="st0" d="M146.7,8.5c1.7,1.9,3.1,3.6,4.7,5.5c0.5-2.2,0.9-4,1.4-6.1C150.7,8.1,148.8,8.3,146.7,8.5z M146.3,8.9
				c-0.6,2.2-1,4-1.6,6.1c2.2-0.3,4-0.5,6.1-0.7C149.3,12.4,147.9,10.7,146.3,8.9z M152.8,7.3c-1.1-1.6-2-3-3.1-4.6
				c-1.1,1.8-2,3.4-3,5.2C148.8,7.8,150.6,7.6,152.8,7.3z M140.2,10.9c1.4,1.3,2.7,2.5,4.1,3.8c0.5-2.1,1-3.9,1.6-6
				C143.8,9.5,142.1,10.2,140.2,10.9z M148,20c1-1.8,1.9-3.3,2.9-5.2c-2.2,0.2-4,0.4-6.1,0.6C146,17,146.9,18.4,148,20z M151.9,14
				c1.9-0.8,3.6-1.4,5.5-2.2c-1.4-1.3-2.6-2.5-4-3.7C152.9,10.1,152.5,11.9,151.9,14z M146.1,7.8c1-1.8,1.9-3.3,3-5.2
				c-2.2,0.5-4.2,0.9-6.4,1.3C144,5.4,145,6.5,146.1,7.8z M151.5,14.9c-1,1.7-1.9,3.3-3,5.2c2.3-0.5,4.2-0.9,6.3-1.3
				C153.7,17.4,152.7,16.3,151.5,14.9z M142.4,4.3c-0.8,2.1-1.5,4-2.3,6.1c2-0.8,3.7-1.5,5.6-2.3C144.6,6.8,143.6,5.7,142.4,4.3z
				 M155.2,18.5c0.7-2.1,1.4-3.9,2.1-5.7c-0.1-0.1-0.1-0.2-0.2-0.3c-1.6,0.7-3.3,1.4-5.1,2.1C153.1,15.9,154.1,17.1,155.2,18.5z
				 M144.3,15.6c-1,0.9-1.8,1.6-2.8,2.4c2,0.7,3.7,1.3,5.5,1.9c0-0.1,0.1-0.1,0.1-0.2C146.2,18.4,145.3,17.1,144.3,15.6z M144,15.2
				c-1.3-1.2-2.5-2.3-3.6-3.4c-0.1,0.1-0.1,0.1-0.2,0.2c0.3,1.8,0.6,3.6,1,5.6C142.2,16.7,143,16,144,15.2z M156.1,4.7
				c-1.9-0.7-3.7-1.3-5.4-1.8c0.6,1.3,1.4,2.5,2.2,3.5c0.2,0.2,0.8,0.4,1,0.2C154.6,6.1,155.3,5.5,156.1,4.7z M156.5,5.2
				c-1,0.8-1.7,1.4-2.5,2.1c-0.1,0.1-0.1,0.6,0,0.7c1,1,2.1,1.9,3.4,3C157.1,8.9,156.8,7.2,156.5,5.2z M154.1,19.4
				c-1.8,0.4-3.4,0.7-5.1,1.1C151.5,22.2,151.1,22.2,154.1,19.4z M148.7,2.2c-2.2-1.6-2.9-1.5-5,1.1C145.4,2.9,147,2.6,148.7,2.2z
				 M141.7,4.9c-3,2.4-3.2,3-1.8,4.9C140.4,8.2,141,6.7,141.7,4.9z M156.1,17.8c3.2-2.9,3.1-2.2,1.8-4.7c-0.5,1.1-0.9,2.2-1.4,3.3
				C156.3,16.8,156.3,17.2,156.1,17.8z M150.5,2.3c0.9,0.3,1.6,0.6,2.3,0.8c0.7,0.2,1.4,0.5,2.2,0.7c-0.5-0.7-1-1.2-1.6-1.6
				C152.1,1,152.1,1,150.5,2.3z M142.6,18.9c0,0.1-0.1,0.1-0.1,0.2c0.6,0.5,1.1,1,1.7,1.5c1.3,1.1,1.4,1.1,2.9-0.2
				C145.6,19.9,144.1,19.4,142.6,18.9z M140.2,16.3c0.1,0,0.2-0.1,0.3-0.1c-0.3-1.5-0.5-2.9-0.8-4.4c-0.5,0.7-1.7,1-1,2.1
				C139.1,14.7,139.6,15.5,140.2,16.3z M158,10.8c0.2,0,0.3,0.1,0.5,0.1c0.2-0.6,0.8-1.4,0.6-1.8c-0.3-1-1.1-1.8-1.7-2.7
				c-0.1,0-0.2,0.1-0.2,0.1C157.5,8,157.8,9.4,158,10.8z M138.6,8.9c-0.1,1.1-0.2,2.1-0.3,3.2C139.5,10.9,139.6,10.6,138.6,8.9z
				 M159.1,13.7c0.1-1,0.2-1.9,0.3-3C158.2,11.6,158.2,12.1,159.1,13.7z M149.5,21.7c-1-0.9-1.9-1.2-2.8,0
				C147.7,21.7,148.7,21.7,149.5,21.7z M151,1.1c-1.1,0-2-0.1-3.3-0.1C149.7,2.1,149.8,2.1,151,1.1z"/>
			<path class="st0" d="M146.7,8.5c2.2-0.2,4-0.4,6.1-0.6c-0.5,2.1-0.9,3.9-1.4,6.1C149.8,12.1,148.3,10.4,146.7,8.5z"/>
			<path class="st0" d="M146.3,8.9c1.6,1.8,3,3.5,4.6,5.4c-2.1,0.3-4,0.5-6.1,0.7C145.3,12.9,145.7,11.1,146.3,8.9z"/>
			<path class="st0" d="M152.8,7.3c-2.2,0.2-4,0.4-6.1,0.6c1.1-1.8,2-3.4,3-5.2C150.8,4.3,151.7,5.7,152.8,7.3z"/>
			<path class="st0" d="M140.2,10.9c1.9-0.8,3.6-1.4,5.6-2.2c-0.6,2.1-1,4-1.6,6C142.8,13.4,141.6,12.3,140.2,10.9z"/>
			<path class="st0" d="M148,20c-1.1-1.6-2-3-3.1-4.6c2-0.2,3.9-0.4,6.1-0.6C149.9,16.7,149,18.2,148,20z"/>
			<path class="st0" d="M151.9,14c0.6-2.1,1-3.8,1.6-5.9c1.3,1.2,2.5,2.4,4,3.7C155.5,12.6,153.8,13.2,151.9,14z"/>
			<path class="st0" d="M146.1,7.8C145,6.5,144,5.4,142.8,4c2.2-0.5,4.1-0.9,6.4-1.3C148.1,4.5,147.2,6.1,146.1,7.8z"/>
			<path class="st0" d="M151.5,14.9c1.2,1.4,2.2,2.5,3.3,3.8c-2.2,0.5-4.1,0.9-6.3,1.3C149.6,18.2,150.5,16.7,151.5,14.9z"/>
			<path class="st0" d="M142.4,4.3c1.2,1.3,2.1,2.5,3.3,3.8c-1.9,0.8-3.5,1.4-5.6,2.3C140.9,8.3,141.6,6.4,142.4,4.3z"/>
			<path class="st0" d="M155.2,18.5c-1.1-1.4-2.1-2.5-3.2-3.9c1.8-0.7,3.4-1.4,5.1-2.1c0.1,0.1,0.1,0.2,0.2,0.3
				C156.7,14.6,156,16.4,155.2,18.5z"/>
			<path class="st0" d="M144.3,15.6c1,1.5,1.9,2.8,2.8,4.1c0,0.1-0.1,0.1-0.1,0.2c-1.7-0.6-3.4-1.2-5.5-1.9
				C142.5,17.1,143.3,16.4,144.3,15.6z"/>
			<path class="st0" d="M144,15.2c-1,0.8-1.8,1.5-2.8,2.4c-0.4-2.1-0.7-3.9-1-5.6c0.1-0.1,0.1-0.1,0.2-0.2
				C141.5,12.9,142.7,14,144,15.2z"/>
			<path class="st0" d="M156.1,4.7c-0.8,0.7-1.4,1.4-2.1,1.9c-0.2,0.1-0.8,0-1-0.2c-0.8-1-1.6-2.2-2.2-3.5
				C152.4,3.5,154.1,4.1,156.1,4.7z"/>
			<path class="st0" d="M156.5,5.2c0.3,2,0.6,3.7,1,5.8c-1.3-1.2-2.4-2.1-3.4-3c-0.1-0.1-0.1-0.6,0-0.7C154.7,6.6,155.5,6,156.5,5.2
				z"/>
			<path class="st0" d="M154.1,19.4c-3,2.8-2.6,2.7-5.1,1.1C150.7,20.2,152.3,19.8,154.1,19.4z"/>
			<path class="st0" d="M148.7,2.2c-1.7,0.4-3.3,0.7-5,1.1C145.8,0.8,146.5,0.6,148.7,2.2z"/>
			<path class="st0" d="M141.7,4.9c-0.7,1.8-1.2,3.3-1.8,4.9C138.4,7.9,138.7,7.2,141.7,4.9z"/>
			<path class="st0" d="M156.1,17.8c0.2-0.6,0.3-1,0.4-1.3c0.4-1.1,0.9-2.2,1.4-3.3C159.2,15.7,159.2,15,156.1,17.8z"/>
			<path class="st0" d="M150.5,2.3c1.6-1.3,1.6-1.3,2.9-0.1c0.5,0.5,1.1,1,1.6,1.6c-0.7-0.2-1.5-0.5-2.2-0.7
				C152.1,2.9,151.4,2.6,150.5,2.3z"/>
			<path class="st0" d="M142.6,18.9c1.5,0.5,2.9,1,4.5,1.5c-1.5,1.3-1.6,1.3-2.9,0.2c-0.6-0.5-1.1-1-1.7-1.5
				C142.6,19,142.6,19,142.6,18.9z"/>
			<path class="st0" d="M140.2,16.3c-0.5-0.8-1.1-1.6-1.6-2.4c-0.6-1.1,0.5-1.4,1-2.1c0.3,1.5,0.5,2.9,0.8,4.4
				C140.3,16.2,140.2,16.2,140.2,16.3z"/>
			<path class="st0" d="M158,10.8c-0.3-1.4-0.5-2.9-0.8-4.3c0.1,0,0.2-0.1,0.2-0.1c0.6,0.9,1.3,1.7,1.7,2.7c0.2,0.5-0.4,1.2-0.6,1.8
				C158.3,10.9,158.2,10.9,158,10.8z"/>
			<path class="st0" d="M138.6,8.9c1,1.6,0.9,1.9-0.3,3.2C138.4,11,138.5,10.1,138.6,8.9z"/>
			<path class="st0" d="M159.1,13.7c-0.9-1.6-0.8-2.1,0.3-3C159.3,11.8,159.2,12.7,159.1,13.7z"/>
			<path class="st0" d="M149.5,21.7c-0.9,0-1.8,0-2.8,0C147.6,20.5,148.6,20.8,149.5,21.7z"/>
			<path class="st0" d="M151,1.1c-1.2,1.1-1.3,1.1-3.3-0.1C149,1,149.9,1,151,1.1z"/>
		</g>
	</g>
	<g>
		<path class="st0" d="M86.8,13.9h1.8l3.7,7.7h-1.9l-0.5-1.1h-4.2l-0.5,1.1h-1.9L86.8,13.9z M86.3,18.9h2.8l-1.4-2.9L86.3,18.9z"/>
		<path class="st0" d="M93.5,14h4.2c0.4,0,0.7,0.1,1,0.2c0.3,0.1,0.5,0.3,0.7,0.5c0.2,0.2,0.3,0.4,0.4,0.7c0.1,0.3,0.1,0.5,0.1,0.8
			c0,0.2,0,0.5-0.1,0.7s-0.2,0.4-0.3,0.6c0.4,0.2,0.6,0.5,0.8,0.9c0.2,0.3,0.3,0.7,0.3,1.1c0,0.3,0,0.5-0.1,0.8
			c-0.1,0.3-0.2,0.5-0.4,0.7s-0.4,0.4-0.7,0.5s-0.6,0.2-1,0.2h-4.9V14z M95.3,17h2c0.3,0,0.5-0.1,0.7-0.3c0.2-0.2,0.2-0.4,0.2-0.6
			s-0.1-0.4-0.2-0.6c-0.2-0.2-0.4-0.3-0.7-0.3h-2V17z M95.3,20.1H98c0.3,0,0.5-0.1,0.7-0.3c0.2-0.2,0.2-0.4,0.2-0.6
			c0-0.2-0.1-0.4-0.2-0.6c-0.2-0.2-0.4-0.3-0.7-0.3h-2.7V20.1z"/>
		<path class="st0" d="M102.1,14h1.8l4.6,5.3V14h1.8v7.6h-1.8l-4.6-5.3v5.3h-1.8V14z"/>
		<path class="st1" d="M111.8,17.8c0-0.7,0.1-1.2,0.4-1.8c0.3-0.5,0.6-0.9,1-1.3c0.4-0.3,0.9-0.6,1.4-0.8c0.5-0.2,1-0.3,1.5-0.3
			c0.8,0,1.5,0.1,2.1,0.4c0.6,0.3,1.1,0.7,1.5,1.2l-1.4,1.2c-0.1-0.2-0.3-0.3-0.4-0.4c-0.2-0.1-0.3-0.2-0.5-0.3
			c-0.2-0.1-0.4-0.2-0.6-0.2c-0.2-0.1-0.4-0.1-0.6-0.1c-0.4,0-0.8,0.1-1.1,0.2c-0.3,0.1-0.6,0.3-0.8,0.5c-0.2,0.2-0.4,0.5-0.5,0.7
			c-0.1,0.3-0.2,0.6-0.2,0.8c0,0.3,0.1,0.6,0.2,0.8c0.1,0.3,0.3,0.5,0.5,0.7c0.2,0.2,0.5,0.4,0.8,0.5c0.3,0.1,0.7,0.2,1.1,0.2
			c0.3,0,0.5,0,0.7-0.1c0.2-0.1,0.4-0.1,0.6-0.2c0.2-0.1,0.3-0.2,0.5-0.4c0.1-0.1,0.3-0.3,0.4-0.4l1.4,1.2c-0.4,0.5-0.9,0.9-1.6,1.2
			c-0.6,0.3-1.3,0.5-2.1,0.5c-0.5,0-1-0.1-1.5-0.3c-0.5-0.2-1-0.4-1.4-0.8c-0.4-0.3-0.7-0.8-1-1.3C111.9,19,111.8,18.5,111.8,17.8z
			 M115.2,17.8c0-0.3,0.1-0.5,0.2-0.6s0.4-0.2,0.6-0.2c0.3,0,0.5,0.1,0.6,0.2c0.2,0.2,0.2,0.4,0.2,0.6c0,0.3-0.1,0.5-0.2,0.6
			c-0.2,0.2-0.4,0.2-0.6,0.2c-0.3,0-0.5-0.1-0.6-0.2S115.2,18.1,115.2,17.8z"/>
		<path class="st1" d="M123.4,21.7l-2.9-7.7h1.9l1.8,5.1l1.9-5.1h1.2l1.9,5.1l1.8-5.1h1.9l-2.9,7.7h-1.5l-1.9-4.9l-1.9,4.9H123.4z"
			/>
	</g>
	<g>
		<g>
			<g>
				<path class="st2" d="M18.2,29.6c-0.4-0.4-0.9-0.7-1.5-1c-0.6-0.3-1.2-0.6-1.9-0.8c-0.7-0.2-1.4-0.4-2.1-0.5
					c-0.7-0.1-1.4-0.2-2-0.2c-1,0-1.8,0.2-2.5,0.4c-0.7,0.3-1,0.8-1,1.4c0,0.4,0.2,0.7,0.6,1c0.4,0.3,0.9,0.5,1.5,0.6
					c0.6,0.2,1.3,0.3,2.1,0.5c0.8,0.1,1.6,0.3,2.4,0.5c0.8,0.2,1.6,0.4,2.4,0.7c0.8,0.3,1.5,0.6,2.1,1.1c0.6,0.4,1.1,1,1.5,1.6
					c0.4,0.6,0.6,1.4,0.6,2.4c0,1-0.2,1.9-0.7,2.7c-0.5,0.7-1.2,1.3-2,1.8c-0.8,0.5-1.8,0.8-2.9,1c-1.1,0.2-2.2,0.3-3.4,0.3
					c-1,0-1.9-0.1-2.9-0.2c-1-0.1-1.9-0.3-2.8-0.6c-0.9-0.2-1.7-0.5-2.5-0.9c-0.8-0.3-1.4-0.7-2-1.2l2.2-3.8c0.4,0.4,1,0.8,1.7,1.1
					c0.7,0.3,1.4,0.6,2.1,0.8c0.8,0.2,1.5,0.4,2.3,0.5c0.8,0.1,1.6,0.2,2.3,0.2c0.5,0,1,0,1.4-0.1c0.4-0.1,0.8-0.2,1.1-0.3
					c0.3-0.1,0.6-0.3,0.8-0.5c0.2-0.2,0.3-0.5,0.3-0.8c0-0.4-0.2-0.8-0.6-1s-0.9-0.5-1.5-0.7c-0.6-0.2-1.3-0.3-2.1-0.5
					c-0.8-0.2-1.6-0.3-2.4-0.5C8,34.5,7.2,34.3,6.4,34c-0.8-0.3-1.5-0.6-2.1-1.1c-0.6-0.4-1.1-1-1.5-1.6c-0.4-0.6-0.6-1.4-0.6-2.4
					c0-1,0.2-1.9,0.7-2.7c0.4-0.7,1-1.3,1.8-1.8s1.6-0.8,2.6-1c1-0.2,2-0.3,3.1-0.3c0.9,0,1.8,0.1,2.7,0.2c0.9,0.1,1.8,0.3,2.7,0.5
					c0.9,0.2,1.7,0.5,2.5,0.9c0.8,0.3,1.5,0.7,2,1.2L18.2,29.6z"/>
				<path class="st2" d="M23.9,23.6l10.2,0c1,0,1.9,0.2,2.7,0.5c0.8,0.3,1.4,0.8,1.9,1.4c0.5,0.6,0.9,1.2,1.2,2
					c0.3,0.7,0.4,1.5,0.4,2.3c0,0.8-0.1,1.5-0.4,2.3c-0.3,0.7-0.6,1.4-1.2,2c-0.5,0.6-1.2,1-1.9,1.4c-0.8,0.4-1.7,0.5-2.7,0.5
					l-5.7,0l0,6.6l-4.5,0L23.9,23.6z M28.5,32.1l5.2,0c0.8,0,1.3-0.2,1.7-0.7c0.4-0.5,0.6-1,0.6-1.6c0-0.3,0-0.6-0.1-0.8
					c-0.1-0.3-0.2-0.5-0.4-0.8c-0.2-0.2-0.4-0.4-0.7-0.5c-0.3-0.1-0.6-0.2-1-0.2l-5.2,0L28.5,32.1z"/>
				<path class="st2" d="M43.8,23.6l11.4,0c1,0,1.9,0.2,2.7,0.5s1.4,0.8,1.9,1.3c0.5,0.6,0.9,1.2,1.2,1.9c0.3,0.7,0.4,1.4,0.4,2.2
					c0,0.6-0.1,1.1-0.2,1.7s-0.4,1.1-0.7,1.6c-0.3,0.5-0.7,0.9-1.2,1.3s-1,0.7-1.7,0.9l5.8,7.4l-5.7,0l-5-7.1l-4.3,0l0,7.1l-4.5,0
					L43.8,23.6z M48.4,31.6l5.7,0c0.9,0,1.5-0.2,1.9-0.7c0.4-0.4,0.6-0.9,0.6-1.4c0-0.5-0.2-1-0.6-1.4s-1.1-0.7-1.9-0.7l-5.7,0
					L48.4,31.6z"/>
				<path class="st2" d="M87.1,32.9c0,1.7-0.3,3.2-1,4.4c-0.7,1.3-1.5,2.3-2.5,3.1c-1,0.8-2.2,1.5-3.4,1.9c-1.3,0.4-2.5,0.6-3.8,0.6
					c-1.2,0-2.5-0.2-3.8-0.6c-1.3-0.4-2.4-1-3.5-1.9c-1-0.8-1.9-1.9-2.5-3.1c-0.7-1.3-1-2.7-1-4.4c0-1.7,0.3-3.2,1-4.4
					c0.7-1.3,1.5-2.3,2.5-3.1c1-0.8,2.2-1.5,3.5-1.9c1.3-0.4,2.5-0.6,3.8-0.6c1.2,0,2.5,0.2,3.8,0.6c1.3,0.4,2.4,1,3.4,1.9
					c1,0.8,1.9,1.9,2.5,3.1C86.8,29.8,87.1,31.2,87.1,32.9z M82.5,32.9c0-1-0.2-1.8-0.6-2.5c-0.4-0.7-0.9-1.3-1.4-1.8
					c-0.6-0.5-1.2-0.8-2-1.1c-0.7-0.2-1.4-0.3-2.1-0.3c-0.7,0-1.4,0.1-2.1,0.4c-0.7,0.2-1.4,0.6-2,1.1c-0.6,0.5-1.1,1.1-1.4,1.8
					c-0.4,0.7-0.5,1.6-0.5,2.5c0,1,0.2,1.8,0.6,2.5c0.4,0.7,0.9,1.3,1.4,1.8c0.6,0.5,1.3,0.8,2,1.1c0.7,0.2,1.4,0.3,2.1,0.3
					c0.7,0,1.4-0.1,2.1-0.4c0.7-0.2,1.4-0.6,2-1.1c0.6-0.5,1.1-1.1,1.4-1.8S82.5,33.9,82.5,32.9z"/>
				<path class="st2" d="M90.4,23.5l4.5,0l0,11.1c0,0.7,0.1,1.3,0.4,1.8c0.3,0.5,0.7,0.9,1.1,1.3c0.5,0.3,1,0.6,1.6,0.8
					c0.6,0.2,1.2,0.3,1.8,0.3c0.6,0,1.2-0.1,1.8-0.3c0.6-0.2,1.1-0.4,1.6-0.8s0.8-0.8,1.1-1.3s0.4-1.1,0.4-1.8l0-11.1l4.5,0l0,11.1
					c0,1.4-0.3,2.6-0.8,3.7c-0.5,1-1.3,1.9-2.1,2.6c-0.9,0.7-1.9,1.2-3.1,1.6c-1.1,0.4-2.3,0.5-3.5,0.5c-1.2,0-2.4-0.2-3.5-0.5
					c-1.1-0.3-2.2-0.9-3.1-1.6c-0.9-0.7-1.6-1.6-2.2-2.6c-0.5-1-0.8-2.3-0.8-3.7L90.4,23.5z"/>
				<path class="st2" d="M133,23.4l0,3.8l-8.2,0l0,15.1l-4.5,0l0-15.1l-8.2,0l0-3.7L133,23.4z"/>
			</g>
		</g>
		<circle class="st1" cx="76.4" cy="32.9" r="2.5"/>
	</g>
</g>
</svg>
