<?xml version="1.0" encoding="utf-8"?>
<!-- Generator: Adobe Illustrator 27.7.0, SVG Export Plug-In . SVG Version: 6.00 Build 0)  -->
<svg version="1.1" id="Layer_1" xmlns="http://www.w3.org/2000/svg" xmlns:xlink="http://www.w3.org/1999/xlink" x="0px" y="0px"
	 viewBox="0 0 177.8 44.1" style="enable-background:new 0 0 177.8 44.1;" xml:space="preserve">
<style type="text/css">
	.st0{fill:#083E89;}
	.st1{fill:#FF6728;}
	.st2{fill:#CECA32;}
</style>
<g>
	<g>
		<path class="st0" d="M147.8,8.6c1.7,1.9,3.1,3.6,4.7,5.5c0.5-2.2,0.9-4,1.4-6.1C151.9,8.2,150,8.4,147.8,8.6z M147.4,9
			c-0.6,2.2-1,4-1.6,6.1c2.2-0.3,4-0.5,6.1-0.7C150.4,12.5,149,10.8,147.4,9z M153.9,7.4c-1.1-1.6-2-3-3.1-4.6c-1.1,1.8-2,3.4-3,5.2
			C149.9,7.8,151.8,7.7,153.9,7.4z M141.3,11c1.4,1.3,2.7,2.5,4.1,3.8c0.5-2.1,1-3.9,1.6-6C144.9,9.6,143.3,10.3,141.3,11z
			 M149.1,20.1c1-1.8,1.9-3.3,2.9-5.2c-2.2,0.2-4,0.4-6.1,0.6C147.1,17.1,148,18.5,149.1,20.1z M153,14.1c1.9-0.8,3.6-1.4,5.5-2.2
			c-1.4-1.3-2.6-2.5-4-3.7C154.1,10.2,153.6,12,153,14.1z M147.3,7.9c1-1.8,1.9-3.3,3-5.2c-2.2,0.5-4.2,0.9-6.4,1.3
			C145.1,5.4,146.1,6.6,147.3,7.9z M152.6,15c-1,1.7-1.9,3.3-3,5.2c2.3-0.5,4.2-0.9,6.3-1.3C154.8,17.5,153.9,16.4,152.6,15z
			 M143.6,4.4c-0.8,2.1-1.5,4-2.3,6.1c2-0.8,3.7-1.5,5.6-2.3C145.7,6.9,144.7,5.8,143.6,4.4z M156.4,18.6c0.7-2.1,1.4-3.9,2.1-5.7
			c-0.1-0.1-0.1-0.2-0.2-0.3c-1.6,0.7-3.3,1.4-5.1,2.1C154.3,16,155.2,17.2,156.4,18.6z M145.5,15.7c-1,0.9-1.8,1.6-2.8,2.4
			c2,0.7,3.7,1.3,5.5,1.9c0-0.1,0.1-0.1,0.1-0.2C147.4,18.4,146.5,17.1,145.5,15.7z M145.1,15.3c-1.3-1.2-2.5-2.3-3.6-3.4
			c-0.1,0.1-0.1,0.1-0.2,0.2c0.3,1.8,0.6,3.6,1,5.6C143.4,16.8,144.2,16.1,145.1,15.3z M157.2,4.8c-1.9-0.7-3.7-1.3-5.4-1.8
			c0.6,1.3,1.4,2.5,2.2,3.5c0.2,0.2,0.8,0.4,1,0.2C155.8,6.2,156.4,5.6,157.2,4.8z M157.6,5.3c-1,0.8-1.7,1.4-2.5,2.1
			c-0.1,0.1-0.1,0.6,0,0.7c1,1,2.1,1.9,3.4,3C158.2,9,157.9,7.2,157.6,5.3z M155.2,19.5c-1.8,0.4-3.4,0.7-5.1,1.1
			C152.7,22.3,152.2,22.3,155.2,19.5z M149.8,2.3c-2.2-1.6-2.9-1.5-5,1.1C146.5,3,148.1,2.7,149.8,2.3z M142.8,5
			c-3,2.4-3.2,3-1.8,4.9C141.6,8.3,142.1,6.8,142.8,5z M157.2,17.9c3.2-2.9,3.1-2.2,1.8-4.7c-0.5,1.1-0.9,2.2-1.4,3.3
			C157.5,16.9,157.4,17.3,157.2,17.9z M151.7,2.4c0.9,0.3,1.6,0.6,2.3,0.8c0.7,0.2,1.4,0.5,2.2,0.7c-0.5-0.7-1-1.2-1.6-1.6
			C153.3,1.1,153.2,1.1,151.7,2.4z M143.8,19c0,0.1-0.1,0.1-0.1,0.2c0.6,0.5,1.1,1,1.7,1.5c1.3,1.1,1.4,1.1,2.9-0.2
			C146.7,20,145.2,19.5,143.8,19z M141.3,16.4c0.1,0,0.2-0.1,0.3-0.1c-0.3-1.5-0.5-2.9-0.8-4.4c-0.5,0.7-1.7,1-1,2.1
			C140.2,14.8,140.8,15.6,141.3,16.4z M159.2,10.9c0.2,0,0.3,0.1,0.5,0.1c0.2-0.6,0.8-1.4,0.6-1.8c-0.3-1-1.1-1.8-1.7-2.7
			c-0.1,0-0.2,0.1-0.2,0.1C158.6,8.1,158.9,9.5,159.2,10.9z M139.7,9c-0.1,1.1-0.2,2.1-0.3,3.2C140.7,11,140.7,10.7,139.7,9z
			 M160.2,13.8c0.1-1,0.2-1.9,0.3-3C159.4,11.7,159.3,12.2,160.2,13.8z M150.7,21.8c-1-0.9-1.9-1.2-2.8,0
			C148.9,21.8,149.8,21.8,150.7,21.8z M152.2,1.2c-1.1,0-2-0.1-3.3-0.1C150.8,2.2,150.9,2.2,152.2,1.2z"/>
		<path class="st0" d="M147.8,8.6c2.2-0.2,4-0.4,6.1-0.6c-0.5,2.1-0.9,3.9-1.4,6.1C150.9,12.2,149.5,10.5,147.8,8.6z"/>
		<path class="st0" d="M147.4,9c1.6,1.8,3,3.5,4.6,5.4c-2.1,0.3-4,0.5-6.1,0.7C146.4,13,146.9,11.2,147.4,9z"/>
		<path class="st0" d="M153.9,7.4c-2.2,0.2-4,0.4-6.1,0.6c1.1-1.8,2-3.4,3-5.2C151.9,4.4,152.8,5.8,153.9,7.4z"/>
		<path class="st0" d="M141.3,11c1.9-0.8,3.6-1.4,5.6-2.2c-0.6,2.1-1,4-1.6,6C144,13.5,142.8,12.4,141.3,11z"/>
		<path class="st0" d="M149.1,20.1c-1.1-1.6-2-3-3.1-4.6c2-0.2,3.9-0.4,6.1-0.6C151,16.8,150.1,18.3,149.1,20.1z"/>
		<path class="st0" d="M153,14.1c0.6-2.1,1-3.8,1.6-5.9c1.3,1.2,2.5,2.4,4,3.7C156.6,12.7,155,13.3,153,14.1z"/>
		<path class="st0" d="M147.3,7.9c-1.2-1.3-2.2-2.5-3.3-3.8c2.2-0.5,4.1-0.9,6.4-1.3C149.2,4.6,148.3,6.1,147.3,7.9z"/>
		<path class="st0" d="M152.6,15c1.2,1.4,2.2,2.5,3.3,3.8c-2.2,0.5-4.1,0.9-6.3,1.3C150.7,18.3,151.6,16.7,152.6,15z"/>
		<path class="st0" d="M143.6,4.4c1.2,1.3,2.1,2.5,3.3,3.8c-1.9,0.8-3.5,1.4-5.6,2.3C142.1,8.4,142.8,6.5,143.6,4.4z"/>
		<path class="st0" d="M156.4,18.6c-1.1-1.4-2.1-2.5-3.2-3.9c1.8-0.7,3.4-1.4,5.1-2.1c0.1,0.1,0.1,0.2,0.2,0.3
			C157.8,14.7,157.1,16.5,156.4,18.6z"/>
		<path class="st0" d="M145.5,15.7c1,1.5,1.9,2.8,2.8,4.1c0,0.1-0.1,0.1-0.1,0.2c-1.7-0.6-3.4-1.2-5.5-1.9
			C143.7,17.2,144.5,16.5,145.5,15.7z"/>
		<path class="st0" d="M145.1,15.3c-1,0.8-1.8,1.5-2.8,2.4c-0.4-2.1-0.7-3.9-1-5.6c0.1-0.1,0.1-0.1,0.2-0.2
			C142.7,13,143.8,14.1,145.1,15.3z"/>
		<path class="st0" d="M157.2,4.8c-0.8,0.7-1.4,1.4-2.1,1.9c-0.2,0.1-0.8,0-1-0.2c-0.8-1-1.6-2.2-2.2-3.5
			C153.5,3.6,155.3,4.2,157.2,4.8z"/>
		<path class="st0" d="M157.6,5.3c0.3,2,0.6,3.7,1,5.8c-1.3-1.2-2.4-2.1-3.4-3c-0.1-0.1-0.1-0.6,0-0.7
			C155.9,6.7,156.7,6.1,157.6,5.3z"/>
		<path class="st0" d="M155.2,19.5c-3,2.8-2.6,2.7-5.1,1.1C151.8,20.2,153.4,19.9,155.2,19.5z"/>
		<path class="st0" d="M149.8,2.3c-1.7,0.4-3.3,0.7-5,1.1C146.9,0.9,147.6,0.7,149.8,2.3z"/>
		<path class="st0" d="M142.8,5c-0.7,1.8-1.2,3.3-1.8,4.9C139.6,8,139.8,7.3,142.8,5z"/>
		<path class="st0" d="M157.2,17.9c0.2-0.6,0.3-1,0.4-1.3c0.4-1.1,0.9-2.2,1.4-3.3C160.3,15.7,160.4,15.1,157.2,17.9z"/>
		<path class="st0" d="M151.7,2.4c1.6-1.3,1.6-1.3,2.9-0.1c0.5,0.5,1.1,1,1.6,1.6c-0.7-0.2-1.5-0.5-2.2-0.7
			C153.2,3,152.5,2.7,151.7,2.4z"/>
		<path class="st0" d="M143.8,19c1.5,0.5,2.9,1,4.5,1.5c-1.5,1.3-1.6,1.3-2.9,0.2c-0.6-0.5-1.1-1-1.7-1.5
			C143.7,19.1,143.7,19.1,143.8,19z"/>
		<path class="st0" d="M141.3,16.4c-0.5-0.8-1.1-1.6-1.6-2.4c-0.6-1.1,0.5-1.4,1-2.1c0.3,1.5,0.5,2.9,0.8,4.4
			C141.5,16.3,141.4,16.3,141.3,16.4z"/>
		<path class="st0" d="M159.2,10.9c-0.3-1.4-0.5-2.9-0.8-4.3c0.1,0,0.2-0.1,0.2-0.1c0.6,0.9,1.3,1.7,1.7,2.7
			c0.2,0.5-0.4,1.2-0.6,1.8C159.5,11,159.3,11,159.2,10.9z"/>
		<path class="st0" d="M139.7,9c1,1.6,0.9,1.9-0.3,3.2C139.5,11.1,139.6,10.1,139.7,9z"/>
		<path class="st0" d="M160.2,13.8c-0.9-1.6-0.8-2.1,0.3-3C160.4,11.9,160.3,12.8,160.2,13.8z"/>
		<path class="st0" d="M150.7,21.8c-0.9,0-1.8,0-2.8,0C148.7,20.6,149.7,20.9,150.7,21.8z"/>
		<path class="st0" d="M152.2,1.2c-1.2,1.1-1.3,1.1-3.3-0.1C150.1,1.1,151.1,1.1,152.2,1.2z"/>
	</g>
</g>
<g>
	<path class="st0" d="M87.9,14h1.8l3.7,7.7h-1.9L91,20.6h-4.2l-0.5,1.1h-1.9L87.9,14z M87.5,19h2.8l-1.4-2.9L87.5,19z"/>
	<path class="st0" d="M94.6,14.1h4.2c0.4,0,0.7,0.1,1,0.2c0.3,0.1,0.5,0.3,0.7,0.5c0.2,0.2,0.3,0.4,0.4,0.7c0.1,0.3,0.1,0.5,0.1,0.8
		c0,0.2,0,0.5-0.1,0.7s-0.2,0.4-0.3,0.6c0.4,0.2,0.6,0.5,0.8,0.9c0.2,0.3,0.3,0.7,0.3,1.1c0,0.3,0,0.5-0.1,0.8
		c-0.1,0.3-0.2,0.5-0.4,0.7s-0.4,0.4-0.7,0.5s-0.6,0.2-1,0.2h-4.9V14.1z M96.4,17.1h2c0.3,0,0.5-0.1,0.7-0.3
		c0.2-0.2,0.2-0.4,0.2-0.6s-0.1-0.4-0.2-0.6c-0.2-0.2-0.4-0.3-0.7-0.3h-2V17.1z M96.4,20.2h2.7c0.3,0,0.5-0.1,0.7-0.3
		c0.2-0.2,0.2-0.4,0.2-0.6c0-0.2-0.1-0.4-0.2-0.6c-0.2-0.2-0.4-0.3-0.7-0.3h-2.7V20.2z"/>
	<path class="st0" d="M103.2,14.1h1.8l4.6,5.3v-5.3h1.8v7.6h-1.8l-4.6-5.3v5.3h-1.8V14.1z"/>
	<path class="st1" d="M112.9,17.9c0-0.7,0.1-1.2,0.4-1.8c0.3-0.5,0.6-0.9,1-1.3c0.4-0.3,0.9-0.6,1.4-0.8c0.5-0.2,1-0.3,1.5-0.3
		c0.8,0,1.5,0.1,2.1,0.4c0.6,0.3,1.1,0.7,1.5,1.2l-1.4,1.2c-0.1-0.2-0.3-0.3-0.4-0.4c-0.2-0.1-0.3-0.2-0.5-0.3
		c-0.2-0.1-0.4-0.2-0.6-0.2c-0.2-0.1-0.4-0.1-0.6-0.1c-0.4,0-0.8,0.1-1.1,0.2c-0.3,0.1-0.6,0.3-0.8,0.5c-0.2,0.2-0.4,0.5-0.5,0.7
		c-0.1,0.3-0.2,0.6-0.2,0.8c0,0.3,0.1,0.6,0.2,0.8c0.1,0.3,0.3,0.5,0.5,0.7c0.2,0.2,0.5,0.4,0.8,0.5c0.3,0.1,0.7,0.2,1.1,0.2
		c0.3,0,0.5,0,0.7-0.1c0.2-0.1,0.4-0.1,0.6-0.2c0.2-0.1,0.3-0.2,0.5-0.4c0.1-0.1,0.3-0.3,0.4-0.4l1.4,1.2c-0.4,0.5-0.9,0.9-1.6,1.2
		c-0.6,0.3-1.3,0.5-2.1,0.5c-0.5,0-1-0.1-1.5-0.3c-0.5-0.2-1-0.4-1.4-0.8c-0.4-0.3-0.7-0.8-1-1.3C113,19.1,112.9,18.6,112.9,17.9z
		 M116.4,17.9c0-0.3,0.1-0.5,0.2-0.6s0.4-0.2,0.6-0.2c0.3,0,0.5,0.1,0.6,0.2c0.2,0.2,0.2,0.4,0.2,0.6c0,0.3-0.1,0.5-0.2,0.6
		c-0.2,0.2-0.4,0.2-0.6,0.2c-0.3,0-0.5-0.1-0.6-0.2S116.4,18.2,116.4,17.9z"/>
	<path class="st1" d="M124.5,21.8l-2.9-7.7h1.9l1.8,5.1l1.9-5.1h1.2l1.9,5.1l1.8-5.1h1.9l-2.9,7.7h-1.5l-1.9-4.9l-1.9,4.9H124.5z"/>
</g>
<g>
	<g>
		<g>
			<path class="st2" d="M19.3,29.7c-0.4-0.4-0.9-0.7-1.5-1c-0.6-0.3-1.2-0.6-1.9-0.8c-0.7-0.2-1.4-0.4-2.1-0.5
				c-0.7-0.1-1.4-0.2-2-0.2c-1,0-1.8,0.2-2.5,0.4c-0.7,0.3-1,0.8-1,1.4c0,0.4,0.2,0.7,0.6,1c0.4,0.3,0.9,0.5,1.5,0.6
				c0.6,0.2,1.3,0.3,2.1,0.5c0.8,0.1,1.6,0.3,2.4,0.5c0.8,0.2,1.6,0.4,2.4,0.7c0.8,0.3,1.5,0.6,2.1,1.1c0.6,0.4,1.1,1,1.5,1.6
				c0.4,0.6,0.6,1.4,0.6,2.4c0,1-0.2,1.9-0.7,2.7c-0.5,0.7-1.2,1.3-2,1.8c-0.8,0.5-1.8,0.8-2.9,1c-1.1,0.2-2.2,0.3-3.4,0.3
				c-1,0-1.9-0.1-2.9-0.2c-1-0.1-1.9-0.3-2.8-0.6c-0.9-0.2-1.7-0.5-2.5-0.9c-0.8-0.3-1.4-0.7-2-1.2l2.2-3.8c0.4,0.4,1,0.8,1.7,1.1
				C7,38,7.7,38.3,8.4,38.5c0.8,0.2,1.5,0.4,2.3,0.5c0.8,0.1,1.6,0.2,2.3,0.2c0.5,0,1,0,1.4-0.1c0.4-0.1,0.8-0.2,1.1-0.3
				c0.3-0.1,0.6-0.3,0.8-0.5c0.2-0.2,0.3-0.5,0.3-0.8c0-0.4-0.2-0.8-0.6-1s-0.9-0.5-1.5-0.7c-0.6-0.2-1.3-0.3-2.1-0.5
				c-0.8-0.2-1.6-0.3-2.4-0.5c-0.8-0.2-1.6-0.4-2.4-0.7C6.8,33.8,6,33.4,5.4,33c-0.6-0.4-1.1-1-1.5-1.6C3.6,30.7,3.4,30,3.4,29
				c0-1,0.2-1.9,0.7-2.7c0.4-0.7,1-1.3,1.8-1.8s1.6-0.8,2.6-1c1-0.2,2-0.3,3.1-0.3c0.9,0,1.8,0.1,2.7,0.2c0.9,0.1,1.8,0.3,2.7,0.5
				c0.9,0.2,1.7,0.5,2.5,0.9c0.8,0.3,1.5,0.7,2,1.2L19.3,29.7z"/>
			<path class="st2" d="M25.1,23.7l10.2,0c1,0,1.9,0.2,2.7,0.5c0.8,0.3,1.4,0.8,1.9,1.4c0.5,0.6,0.9,1.2,1.2,2
				c0.3,0.7,0.4,1.5,0.4,2.3c0,0.8-0.1,1.5-0.4,2.3c-0.3,0.7-0.6,1.4-1.2,2c-0.5,0.6-1.2,1-1.9,1.4c-0.8,0.4-1.7,0.5-2.7,0.5l-5.7,0
				l0,6.6l-4.5,0L25.1,23.7z M29.6,32.2l5.2,0c0.8,0,1.3-0.2,1.7-0.7c0.4-0.5,0.6-1,0.6-1.6c0-0.3,0-0.6-0.1-0.8
				c-0.1-0.3-0.2-0.5-0.4-0.8c-0.2-0.2-0.4-0.4-0.7-0.5c-0.3-0.1-0.6-0.2-1-0.2l-5.2,0L29.6,32.2z"/>
			<path class="st2" d="M44.9,23.7l11.4,0c1,0,1.9,0.2,2.7,0.5s1.4,0.8,1.9,1.3c0.5,0.6,0.9,1.2,1.2,1.9c0.3,0.7,0.4,1.4,0.4,2.2
				c0,0.6-0.1,1.1-0.2,1.7s-0.4,1.1-0.7,1.6c-0.3,0.5-0.7,0.9-1.2,1.3s-1,0.7-1.7,0.9l5.8,7.4l-5.7,0l-5-7.1l-4.3,0l0,7.1l-4.5,0
				L44.9,23.7z M49.5,31.7l5.7,0c0.9,0,1.5-0.2,1.9-0.7c0.4-0.4,0.6-0.9,0.6-1.4c0-0.5-0.2-1-0.6-1.4s-1.1-0.7-1.9-0.7l-5.7,0
				L49.5,31.7z"/>
			<path class="st2" d="M88.3,33c0,1.7-0.3,3.2-1,4.4c-0.7,1.3-1.5,2.3-2.5,3.1c-1,0.8-2.2,1.5-3.4,1.9c-1.3,0.4-2.5,0.6-3.8,0.6
				c-1.2,0-2.5-0.2-3.8-0.6c-1.3-0.4-2.4-1-3.5-1.9c-1-0.8-1.9-1.9-2.5-3.1c-0.7-1.3-1-2.7-1-4.4c0-1.7,0.3-3.2,1-4.4
				c0.7-1.3,1.5-2.3,2.5-3.1c1-0.8,2.2-1.5,3.5-1.9c1.3-0.4,2.5-0.6,3.8-0.6c1.2,0,2.5,0.2,3.8,0.6c1.3,0.4,2.4,1,3.4,1.9
				c1,0.8,1.9,1.9,2.5,3.1C87.9,29.9,88.3,31.3,88.3,33z M83.7,33c0-1-0.2-1.8-0.6-2.5c-0.4-0.7-0.9-1.3-1.4-1.8
				c-0.6-0.5-1.2-0.8-2-1.1c-0.7-0.2-1.4-0.3-2.1-0.3c-0.7,0-1.4,0.1-2.1,0.4c-0.7,0.2-1.4,0.6-2,1.1c-0.6,0.5-1.1,1.1-1.4,1.8
				c-0.4,0.7-0.5,1.6-0.5,2.5c0,1,0.2,1.8,0.6,2.5c0.4,0.7,0.9,1.3,1.4,1.8c0.6,0.5,1.3,0.8,2,1.1c0.7,0.2,1.4,0.3,2.1,0.3
				c0.7,0,1.4-0.1,2.1-0.4c0.7-0.2,1.4-0.6,2-1.1c0.6-0.5,1.1-1.1,1.4-1.8S83.7,34,83.7,33z"/>
			<path class="st2" d="M91.5,23.6l4.5,0l0,11.1c0,0.7,0.1,1.3,0.4,1.8c0.3,0.5,0.7,0.9,1.1,1.3c0.5,0.3,1,0.6,1.6,0.8
				c0.6,0.2,1.2,0.3,1.8,0.3c0.6,0,1.2-0.1,1.8-0.3c0.6-0.2,1.1-0.4,1.6-0.8s0.8-0.8,1.1-1.3s0.4-1.1,0.4-1.8l0-11.1l4.5,0l0,11.1
				c0,1.4-0.3,2.6-0.8,3.7c-0.5,1-1.3,1.9-2.1,2.6c-0.9,0.7-1.9,1.2-3.1,1.6c-1.1,0.4-2.3,0.5-3.5,0.5c-1.2,0-2.4-0.2-3.5-0.5
				c-1.1-0.3-2.2-0.9-3.1-1.6c-0.9-0.7-1.6-1.6-2.2-2.6c-0.5-1-0.8-2.3-0.8-3.7L91.5,23.6z"/>
			<path class="st2" d="M134.1,23.5l0,3.8l-8.2,0l0,15.1l-4.5,0l0-15.1l-8.2,0l0-3.7L134.1,23.5z"/>
		</g>
	</g>
	<circle class="st1" cx="77.5" cy="33" r="2.5"/>
</g>
</svg>
